<?xml version="1.0" encoding="UTF-8"?>
<!-- Generated by SVGo -->
<svg width="462.638mm" height="129.263mm" viewBox="0.000 0.000 462.638 129.263" xmlns="http://www.w3.org/2000/svg" xmlns:xlink="http://www.w3.org/1999/xlink">
<polygon points="457.638,124.263 5.000,124.263 5.000,5.000 457.638,5.000" style="fill:none;stroke-width:0.050000mm;stroke:black"/>
<polygon points="95.831,107.737 95.831,112.437 94.106,112.437 94.106,109.207 87.556,109.207 87.556,112.437 86.731,112.437 86.731,115.037 87.556,115.037 87.556,121.307 89.281,121.307 89.281,122.507 92.381,122.507 92.381,121.307 94.106,121.307 94.106,116.837 95.831,116.837 95.831,121.537 109.631,121.537 109.631,116.837 111.356,116.837 111.356,121.307 113.081,121.307 113.081,122.507 116.181,122.507 116.181,121.307 117.906,121.307 117.906,115.037 118.731,115.037 118.731,112.437 117.906,112.437 117.906,109.207 111.356,109.207 111.356,112.437 109.631,112.437 109.631,107.737" style="fill:none;stroke-width:0.050000mm;stroke:black"/>
<polygon points="176.793,107.737 176.793,112.437 175.068,112.437 175.068,109.207 168.518,109.207 168.518,112.437 167.693,112.437 167.693,115.037 168.518,115.037 168.518,121.307 170.243,121.307 170.243,122.507 173.343,122.507 173.343,121.307 175.068,121.307 175.068,116.837 176.793,116.837 176.793,121.537 190.593,121.537 190.593,116.837 192.318,116.837 192.318,121.307 194.043,121.307 194.043,122.507 197.143,122.507 197.143,121.307 198.868,121.307 198.868,115.037 199.693,115.037 199.693,112.437 198.868,112.437 198.868,109.207 192.318,109.207 192.318,112.437 190.593,112.437 190.593,107.737" style="fill:none;stroke-width:0.050000mm;stroke:black"/>
<polygon points="393.487,107.737 393.487,112.437 391.762,112.437 391.762,109.207 385.212,109.207 385.212,112.437 384.387,112.437 384.387,115.037 385.212,115.037 385.212,121.307 386.937,121.307 386.937,122.507 390.037,122.507 390.037,121.307 391.762,121.307 391.762,116.837 393.487,116.837 393.487,121.537 407.287,121.537 407.287,116.837 409.012,116.837 409.012,121.307 410.737,121.307 410.737,122.507 413.837,122.507 413.837,121.307 415.562,121.307 415.562,115.037 416.387,115.037 416.387,112.437 415.562,112.437 415.562,109.207 409.012,109.207 409.012,112.437 407.287,112.437 407.287,107.737" style="fill:none;stroke-width:0.050000mm;stroke:black"/>
<polygon points="10.106,107.737 10.106,121.537 23.906,121.537 23.906,107.737" style="fill:none;stroke-width:0.050000mm;stroke:black"/>
<polygon points="36.300,107.737 36.300,121.537 50.100,121.537 50.100,107.737" style="fill:none;stroke-width:0.050000mm;stroke:black"/>
<polygon points="62.493,107.737 62.493,121.537 76.293,121.537 76.293,107.737" style="fill:none;stroke-width:0.050000mm;stroke:black"/>
<polygon points="126.787,107.737 126.787,121.537 140.587,121.537 140.587,107.737" style="fill:none;stroke-width:0.050000mm;stroke:black"/>
<polygon points="214.893,107.737 214.893,121.537 228.693,121.537 228.693,107.737" style="fill:none;stroke-width:0.050000mm;stroke:black"/>
<polygon points="238.706,107.737 238.706,121.537 252.506,121.537 252.506,107.737" style="fill:none;stroke-width:0.050000mm;stroke:black"/>
<polygon points="262.518,107.737 262.518,121.537 276.318,121.537 276.318,107.737" style="fill:none;stroke-width:0.050000mm;stroke:black"/>
<polygon points="286.331,107.737 286.331,121.537 300.131,121.537 300.131,107.737" style="fill:none;stroke-width:0.050000mm;stroke:black"/>
<polygon points="317.287,107.737 317.287,121.537 331.087,121.537 331.087,107.737" style="fill:none;stroke-width:0.050000mm;stroke:black"/>
<polygon points="336.337,107.737 336.337,121.537 350.137,121.537 350.137,107.737" style="fill:none;stroke-width:0.050000mm;stroke:black"/>
<polygon points="355.387,107.737 355.387,121.537 369.187,121.537 369.187,107.737" style="fill:none;stroke-width:0.050000mm;stroke:black"/>
<polygon points="422.062,107.737 422.062,121.537 435.862,121.537 435.862,107.737" style="fill:none;stroke-width:0.050000mm;stroke:black"/>
<polygon points="447.612,89.112 447.612,89.937 441.342,89.937 441.342,91.662 440.142,91.662 440.142,94.762 441.342,94.762 441.342,96.487 445.812,96.487 445.812,98.212 441.112,98.212 441.112,112.012 445.812,112.012 445.812,113.737 441.342,113.737 441.342,115.462 440.142,115.462 440.142,118.562 441.342,118.562 441.342,120.287 447.612,120.287 447.612,121.112 450.212,121.112 450.212,120.287 453.442,120.287 453.442,113.737 450.212,113.737 450.212,112.012 454.912,112.012 454.912,98.212 450.212,98.212 450.212,96.487 453.442,96.487 453.442,89.937 450.212,89.937 450.212,89.112" style="fill:none;stroke-width:0.050000mm;stroke:black"/>
<polygon points="19.631,88.687 19.631,93.387 17.906,93.387 17.906,90.157 11.356,90.157 11.356,93.387 10.531,93.387 10.531,95.987 11.356,95.987 11.356,102.257 13.081,102.257 13.081,103.457 16.181,103.457 16.181,102.257 17.906,102.257 17.906,97.787 19.631,97.787 19.631,102.487 33.431,102.487 33.431,97.787 35.156,97.787 35.156,102.257 36.881,102.257 36.881,103.457 39.981,103.457 39.981,102.257 41.706,102.257 41.706,95.987 42.531,95.987 42.531,93.387 41.706,93.387 41.706,90.157 35.156,90.157 35.156,93.387 33.431,93.387 33.431,88.687" style="fill:none;stroke-width:0.050000mm;stroke:black"/>
<polygon points="272.043,88.687 272.043,93.387 270.318,93.387 270.318,90.157 263.768,90.157 263.768,93.387 262.943,93.387 262.943,95.987 263.768,95.987 263.768,102.257 265.493,102.257 265.493,103.457 268.593,103.457 268.593,102.257 270.318,102.257 270.318,97.787 272.043,97.787 272.043,102.487 285.843,102.487 285.843,97.787 287.568,97.787 287.568,102.257 289.293,102.257 289.293,103.457 292.393,103.457 292.393,102.257 294.118,102.257 294.118,95.987 294.943,95.987 294.943,93.387 294.118,93.387 294.118,90.157 287.568,90.157 287.568,93.387 285.843,93.387 285.843,88.687" style="fill:none;stroke-width:0.050000mm;stroke:black"/>
<polygon points="50.587,88.687 50.587,102.487 64.387,102.487 64.387,88.687" style="fill:none;stroke-width:0.050000mm;stroke:black"/>
<polygon points="69.637,88.687 69.637,102.487 83.437,102.487 83.437,88.687" style="fill:none;stroke-width:0.050000mm;stroke:black"/>
<polygon points="88.687,88.687 88.687,102.487 102.487,102.487 102.487,88.687" style="fill:none;stroke-width:0.050000mm;stroke:black"/>
<polygon points="107.737,88.687 107.737,102.487 121.537,102.487 121.537,88.687" style="fill:none;stroke-width:0.050000mm;stroke:black"/>
<polygon points="126.787,88.687 126.787,102.487 140.587,102.487 140.587,88.687" style="fill:none;stroke-width:0.050000mm;stroke:black"/>
<polygon points="160.125,88.687 160.125,102.487 173.925,102.487 173.925,88.687" style="fill:none;stroke-width:0.050000mm;stroke:black"/>
<polygon points="179.175,88.687 179.175,102.487 192.975,102.487 192.975,88.687" style="fill:none;stroke-width:0.050000mm;stroke:black"/>
<polygon points="198.225,88.687 198.225,102.487 212.025,102.487 212.025,88.687" style="fill:none;stroke-width:0.050000mm;stroke:black"/>
<polygon points="217.275,88.687 217.275,102.487 231.075,102.487 231.075,88.687" style="fill:none;stroke-width:0.050000mm;stroke:black"/>
<polygon points="236.325,88.687 236.325,102.487 250.125,102.487 250.125,88.687" style="fill:none;stroke-width:0.050000mm;stroke:black"/>
<polygon points="336.337,88.687 336.337,102.487 350.137,102.487 350.137,88.687" style="fill:none;stroke-width:0.050000mm;stroke:black"/>
<polygon points="383.962,88.687 383.962,102.487 397.762,102.487 397.762,88.687" style="fill:none;stroke-width:0.050000mm;stroke:black"/>
<polygon points="403.012,88.687 403.012,102.487 416.812,102.487 416.812,88.687" style="fill:none;stroke-width:0.050000mm;stroke:black"/>
<polygon points="422.062,88.687 422.062,102.487 435.862,102.487 435.862,88.687" style="fill:none;stroke-width:0.050000mm;stroke:black"/>
<polygon points="276.806,69.637 276.806,74.337 275.081,74.337 275.081,71.107 268.531,71.107 268.531,74.337 267.706,74.337 267.706,76.937 268.531,76.937 268.531,83.207 270.256,83.207 270.256,84.407 273.356,84.407 273.356,83.207 275.081,83.207 275.081,78.737 276.806,78.737 276.806,83.437 290.606,83.437 290.606,78.737 292.331,78.737 292.331,83.207 294.056,83.207 294.056,84.407 297.156,84.407 297.156,83.207 298.881,83.207 298.881,76.937 299.706,76.937 299.706,74.337 298.881,74.337 298.881,71.107 292.331,71.107 292.331,74.337 290.606,74.337 290.606,69.637" style="fill:none;stroke-width:0.050000mm;stroke:black"/>
<polygon points="14.868,69.637 14.868,83.437 28.668,83.437 28.668,69.637" style="fill:none;stroke-width:0.050000mm;stroke:black"/>
<polygon points="41.062,69.637 41.062,83.437 54.862,83.437 54.862,69.637" style="fill:none;stroke-width:0.050000mm;stroke:black"/>
<polygon points="60.112,69.637 60.112,83.437 73.912,83.437 73.912,69.637" style="fill:none;stroke-width:0.050000mm;stroke:black"/>
<polygon points="79.162,69.637 79.162,83.437 92.962,83.437 92.962,69.637" style="fill:none;stroke-width:0.050000mm;stroke:black"/>
<polygon points="98.212,69.637 98.212,83.437 112.012,83.437 112.012,69.637" style="fill:none;stroke-width:0.050000mm;stroke:black"/>
<polygon points="117.262,69.637 117.262,83.437 131.062,83.437 131.062,69.637" style="fill:none;stroke-width:0.050000mm;stroke:black"/>
<polygon points="150.600,69.637 150.600,83.437 164.400,83.437 164.400,69.637" style="fill:none;stroke-width:0.050000mm;stroke:black"/>
<polygon points="169.650,69.637 169.650,83.437 183.450,83.437 183.450,69.637" style="fill:none;stroke-width:0.050000mm;stroke:black"/>
<polygon points="188.700,69.637 188.700,83.437 202.500,83.437 202.500,69.637" style="fill:none;stroke-width:0.050000mm;stroke:black"/>
<polygon points="207.750,69.637 207.750,83.437 221.550,83.437 221.550,69.637" style="fill:none;stroke-width:0.050000mm;stroke:black"/>
<polygon points="226.800,69.637 226.800,83.437 240.600,83.437 240.600,69.637" style="fill:none;stroke-width:0.050000mm;stroke:black"/>
<polygon points="245.850,69.637 245.850,83.437 259.649,83.437 259.649,69.637" style="fill:none;stroke-width:0.050000mm;stroke:black"/>
<polygon points="383.962,69.637 383.962,83.437 397.762,83.437 397.762,69.637" style="fill:none;stroke-width:0.050000mm;stroke:black"/>
<polygon points="403.012,69.637 403.012,83.437 416.812,83.437 416.812,69.637" style="fill:none;stroke-width:0.050000mm;stroke:black"/>
<polygon points="422.062,69.637 422.062,83.437 435.862,83.437 435.862,69.637" style="fill:none;stroke-width:0.050000mm;stroke:black"/>
<polygon points="447.612,51.012 447.612,51.837 441.342,51.837 441.342,53.562 440.142,53.562 440.142,56.662 441.342,56.662 441.342,58.387 445.812,58.387 445.812,60.112 441.112,60.112 441.112,73.912 445.812,73.912 445.812,75.637 441.342,75.637 441.342,77.362 440.142,77.362 440.142,80.462 441.342,80.462 441.342,82.187 447.612,82.187 447.612,83.012 450.212,83.012 450.212,82.187 453.442,82.187 453.442,75.637 450.212,75.637 450.212,73.912 454.912,73.912 454.912,60.112 450.212,60.112 450.212,58.387 453.442,58.387 453.442,51.837 450.212,51.837 450.212,51.012" style="fill:none;stroke-width:0.050000mm;stroke:black"/>
<polygon points="12.487,50.587 12.487,64.387 26.287,64.387 26.287,50.587" style="fill:none;stroke-width:0.050000mm;stroke:black"/>
<polygon points="36.300,50.587 36.300,64.387 50.100,64.387 50.100,50.587" style="fill:none;stroke-width:0.050000mm;stroke:black"/>
<polygon points="55.350,50.587 55.350,64.387 69.150,64.387 69.150,50.587" style="fill:none;stroke-width:0.050000mm;stroke:black"/>
<polygon points="74.399,50.587 74.399,64.387 88.200,64.387 88.200,50.587" style="fill:none;stroke-width:0.050000mm;stroke:black"/>
<polygon points="93.449,50.587 93.449,64.387 107.250,64.387 107.250,50.587" style="fill:none;stroke-width:0.050000mm;stroke:black"/>
<polygon points="112.499,50.587 112.499,64.387 126.300,64.387 126.300,50.587" style="fill:none;stroke-width:0.050000mm;stroke:black"/>
<polygon points="145.837,50.587 145.837,64.387 159.637,64.387 159.637,50.587" style="fill:none;stroke-width:0.050000mm;stroke:black"/>
<polygon points="164.887,50.587 164.887,64.387 178.687,64.387 178.687,50.587" style="fill:none;stroke-width:0.050000mm;stroke:black"/>
<polygon points="183.937,50.587 183.937,64.387 197.737,64.387 197.737,50.587" style="fill:none;stroke-width:0.050000mm;stroke:black"/>
<polygon points="202.987,50.587 202.987,64.387 216.787,64.387 216.787,50.587" style="fill:none;stroke-width:0.050000mm;stroke:black"/>
<polygon points="222.037,50.587 222.037,64.387 235.837,64.387 235.837,50.587" style="fill:none;stroke-width:0.050000mm;stroke:black"/>
<polygon points="241.087,50.587 241.087,64.387 254.887,64.387 254.887,50.587" style="fill:none;stroke-width:0.050000mm;stroke:black"/>
<polygon points="260.137,50.587 260.137,64.387 273.937,64.387 273.937,50.587" style="fill:none;stroke-width:0.050000mm;stroke:black"/>
<polygon points="283.950,50.587 283.950,64.387 297.750,64.387 297.750,50.587" style="fill:none;stroke-width:0.050000mm;stroke:black"/>
<polygon points="317.287,50.587 317.287,64.387 331.087,64.387 331.087,50.587" style="fill:none;stroke-width:0.050000mm;stroke:black"/>
<polygon points="336.337,50.587 336.337,64.387 350.137,64.387 350.137,50.587" style="fill:none;stroke-width:0.050000mm;stroke:black"/>
<polygon points="355.387,50.587 355.387,64.387 369.187,64.387 369.187,50.587" style="fill:none;stroke-width:0.050000mm;stroke:black"/>
<polygon points="383.962,50.587 383.962,64.387 397.762,64.387 397.762,50.587" style="fill:none;stroke-width:0.050000mm;stroke:black"/>
<polygon points="403.012,50.587 403.012,64.387 416.812,64.387 416.812,50.587" style="fill:none;stroke-width:0.050000mm;stroke:black"/>
<polygon points="422.062,50.587 422.062,64.387 435.862,64.387 435.862,50.587" style="fill:none;stroke-width:0.050000mm;stroke:black"/>
<polygon points="279.187,31.537 279.187,36.237 277.462,36.237 277.462,33.007 270.912,33.007 270.912,36.237 270.087,36.237 270.087,38.837 270.912,38.837 270.912,45.107 272.637,45.107 272.637,46.307 275.737,46.307 275.737,45.107 277.462,45.107 277.462,40.637 279.187,40.637 279.187,45.337 292.987,45.337 292.987,40.637 294.712,40.637 294.712,45.107 296.437,45.107 296.437,46.307 299.537,46.307 299.537,45.107 301.262,45.107 301.262,38.837 302.087,38.837 302.087,36.237 301.262,36.237 301.262,33.007 294.712,33.007 294.712,36.237 292.987,36.237 292.987,31.537" style="fill:none;stroke-width:0.050000mm;stroke:black"/>
<polygon points="7.725,31.537 7.725,45.337 21.525,45.337 21.525,31.537" style="fill:none;stroke-width:0.050000mm;stroke:black"/>
<polygon points="26.775,31.537 26.775,45.337 40.574,45.337 40.574,31.537" style="fill:none;stroke-width:0.050000mm;stroke:black"/>
<polygon points="45.824,31.537 45.824,45.337 59.624,45.337 59.624,31.537" style="fill:none;stroke-width:0.050000mm;stroke:black"/>
<polygon points="64.873,31.537 64.873,45.337 78.675,45.337 78.675,31.537" style="fill:none;stroke-width:0.050000mm;stroke:black"/>
<polygon points="83.924,31.537 83.924,45.337 97.725,45.337 97.725,31.537" style="fill:none;stroke-width:0.050000mm;stroke:black"/>
<polygon points="102.974,31.537 102.974,45.337 116.774,45.337 116.774,31.537" style="fill:none;stroke-width:0.050000mm;stroke:black"/>
<polygon points="122.024,31.537 122.024,45.337 135.825,45.337 135.825,31.537" style="fill:none;stroke-width:0.050000mm;stroke:black"/>
<polygon points="155.362,31.537 155.362,45.337 169.162,45.337 169.162,31.537" style="fill:none;stroke-width:0.050000mm;stroke:black"/>
<polygon points="174.412,31.537 174.412,45.337 188.212,45.337 188.212,31.537" style="fill:none;stroke-width:0.050000mm;stroke:black"/>
<polygon points="193.462,31.537 193.462,45.337 207.262,45.337 207.262,31.537" style="fill:none;stroke-width:0.050000mm;stroke:black"/>
<polygon points="212.512,31.537 212.512,45.337 226.312,45.337 226.312,31.537" style="fill:none;stroke-width:0.050000mm;stroke:black"/>
<polygon points="231.562,31.537 231.562,45.337 245.362,45.337 245.362,31.537" style="fill:none;stroke-width:0.050000mm;stroke:black"/>
<polygon points="250.612,31.537 250.612,45.337 264.412,45.337 264.412,31.537" style="fill:none;stroke-width:0.050000mm;stroke:black"/>
<polygon points="317.287,31.537 317.287,45.337 331.087,45.337 331.087,31.537" style="fill:none;stroke-width:0.050000mm;stroke:black"/>
<polygon points="336.337,31.537 336.337,45.337 350.137,45.337 350.137,31.537" style="fill:none;stroke-width:0.050000mm;stroke:black"/>
<polygon points="355.387,31.537 355.387,45.337 369.187,45.337 369.187,31.537" style="fill:none;stroke-width:0.050000mm;stroke:black"/>
<polygon points="383.962,31.537 383.962,45.337 397.762,45.337 397.762,31.537" style="fill:none;stroke-width:0.050000mm;stroke:black"/>
<polygon points="403.012,31.537 403.012,45.337 416.812,45.337 416.812,31.537" style="fill:none;stroke-width:0.050000mm;stroke:black"/>
<polygon points="422.062,31.537 422.062,45.337 435.862,45.337 435.862,31.537" style="fill:none;stroke-width:0.050000mm;stroke:black"/>
<polygon points="441.112,31.537 441.112,45.337 454.912,45.337 454.912,31.537" style="fill:none;stroke-width:0.050000mm;stroke:black"/>
<polygon points="7.725,7.725 7.725,21.525 21.525,21.525 21.525,7.725" style="fill:none;stroke-width:0.050000mm;stroke:black"/>
<polygon points="31.537,7.725 31.537,21.525 45.337,21.525 45.337,7.725" style="fill:none;stroke-width:0.050000mm;stroke:black"/>
<polygon points="50.587,7.725 50.587,21.525 64.387,21.525 64.387,7.725" style="fill:none;stroke-width:0.050000mm;stroke:black"/>
<polygon points="69.637,7.725 69.637,21.525 83.437,21.525 83.437,7.725" style="fill:none;stroke-width:0.050000mm;stroke:black"/>
<polygon points="88.687,7.725 88.687,21.525 102.487,21.525 102.487,7.725" style="fill:none;stroke-width:0.050000mm;stroke:black"/>
<polygon points="107.737,7.725 107.737,21.525 121.537,21.525 121.537,7.725" style="fill:none;stroke-width:0.050000mm;stroke:black"/>
<polygon points="155.362,7.725 155.362,21.525 169.162,21.525 169.162,7.725" style="fill:none;stroke-width:0.050000mm;stroke:black"/>
<polygon points="174.412,7.725 174.412,21.525 188.212,21.525 188.212,7.725" style="fill:none;stroke-width:0.050000mm;stroke:black"/>
<polygon points="193.462,7.725 193.462,21.525 207.262,21.525 207.262,7.725" style="fill:none;stroke-width:0.050000mm;stroke:black"/>
<polygon points="226.800,7.725 226.800,21.525 240.600,21.525 240.600,7.725" style="fill:none;stroke-width:0.050000mm;stroke:black"/>
<polygon points="245.850,7.725 245.850,21.525 259.649,21.525 259.649,7.725" style="fill:none;stroke-width:0.050000mm;stroke:black"/>
<polygon points="264.900,7.725 264.900,21.525 278.700,21.525 278.700,7.725" style="fill:none;stroke-width:0.050000mm;stroke:black"/>
<polygon points="283.950,7.725 283.950,21.525 297.750,21.525 297.750,7.725" style="fill:none;stroke-width:0.050000mm;stroke:black"/>
<polygon points="317.287,7.725 317.287,21.525 331.087,21.525 331.087,7.725" style="fill:none;stroke-width:0.050000mm;stroke:black"/>
<polygon points="336.337,7.725 336.337,21.525 350.137,21.525 350.137,7.725" style="fill:none;stroke-width:0.050000mm;stroke:black"/>
<polygon points="355.387,7.725 355.387,21.525 369.187,21.525 369.187,7.725" style="fill:none;stroke-width:0.050000mm;stroke:black"/>
<polygon points="383.962,7.725 383.962,21.525 397.762,21.525 397.762,7.725" style="fill:none;stroke-width:0.050000mm;stroke:black"/>
<polygon points="403.012,7.725 403.012,21.525 416.812,21.525 416.812,7.725" style="fill:none;stroke-width:0.050000mm;stroke:black"/>
<polygon points="422.062,7.725 422.062,21.525 435.862,21.525 435.862,7.725" style="fill:none;stroke-width:0.050000mm;stroke:black"/>
<polygon points="441.112,7.725 441.112,21.525 454.912,21.525 454.912,7.725" style="fill:none;stroke-width:0.050000mm;stroke:black"/>
</svg>